#!OML:ASF F:\VICON\USERDATA\INSTALL\rory3\rory3.ASF
:FULLY-SPECIFIED
:DEGREES
28
root 0.048278767741388284 17.741229231890337 4.872424233761254 4.88411501526282 -1.0065739136681666 0.6301508451315136
lfemur -4.222227754422478 -0.6906145050647617 -27.122939027701868
ltibia 24.442666898289154
lfoot -5.700403428352006 -7.389253960834164
ltoes -15.672133215202702
rfemur -36.822200459661644 0.9198686574915542 22.724438333603878
rtibia 60.08722301814769
rfoot 2.525256732248369 -1.6857261362796243
rtoes -3.1723844010670206
lowerback 13.07188616584079 -0.6957090674237143 -2.6908419299033044
upperback -1.1035118905468388 -1.1235152506641688 1.2483918378035452
thorax -8.386512259084997 -0.6473517765468525 2.5513816451133473
lowerneck -20.120432368983842 -3.2792475601850644 -1.9818210645566245
upperneck 10.903086625741846 -4.287352643931543 3.430970921574433
head 6.861445013938961 -1.908724560725787 0.9266649124175056
lclavicle 4.287489401380083e-15 5.758947333776984e-17
lhumerus -32.97644588082156 -12.994555510617062 93.53039117195651
lradius 111.9157884092348
lwrist 28.709332390102713
lhand -30.36291068545793 3.626695773735161
lfingers 7.125019999999998
lthumb -3.974528279131878 33.63025192832463
rclavicle 4.28745605769418e-15 5.756553902901243e-17
rhumerus -53.37348915465738 13.44183759518435 -101.73458319489947
rradius 101.38738487925504
rwrist -9.100653669429963
rhand -20.322476595850233 36.8304306230817
rfingers 7.125019999999998
rthumb 6.081324953659231 7.226617804838938
29
root 0.07493846320509562 17.915184017415076 5.001650910574946 4.840561041644584 -2.647116834216928 0.38485547658549546
lfemur -2.6649046522478894 -0.22575070528662552 -26.821453905898682
ltibia 21.10689255622406
lfoot 2.4197464117180765 -11.40846136625365
ltoes -15.054961799540669
rfemur -37.19366421993497 2.3241317897220637 23.218265647516
rtibia 52.53056677690118
rfoot 2.165615361541145 -2.1144218542892683
rtoes -5.369496735572997
lowerback 12.36985247755066 -0.8464110626934673 -2.3887869466890805
upperback -1.3553913491454608 -1.055041179497596 1.6085741220362233
thorax -8.293162465614893 -0.6476893314576467 2.5900810607587466
lowerneck -19.896541759136085 -3.110060691416027 -2.0789566366174195
upperneck 11.578275343080419 -4.019233907473659 3.2475314725432924
head 6.999128986784483 -1.815635106833689 0.8924318749670093
lclavicle 4.287489401376265e-15 5.758947333502894e-17
lhumerus -33.575086138013845 -12.875542604283204 93.6701607203087
lradius 112.394188099108
lwrist 28.775019552507164
lhand -30.074653950945923 3.485835597984837
lfingers 7.125019999999998
lthumb -3.682148007202883 33.49494676369321
rclavicle 4.2874560576705714e-15 5.756553901206627e-17
rhumerus -54.273611719600964 13.21369677602429 -101.26261964217562
rradius 101.76024772550315
rwrist -9.701027903529049
rhand -20.409759347808087 36.954901225627
rfingers 7.125019999999998
rthumb 5.853708452832143 7.145047190650504
30
root 0.12720068780951188 18.09420651780805 6.028325293730267 5.016175258605094 -4.076457218669347 0.283178800765743
lfemur -0.8219548250813453 0.0646419701004158 -26.289733547288158
ltibia 19.873318529389547
lfoot 9.03427194789708 -13.757021974206536
ltoes -15.135154102470644
rfemur -37.22617605525048 3.236401773236272 23.679111710070526
rtibia 44.95439567331734
rfoot 1.6305690262824588 -2.2986883600899106
rtoes -6.781314982114523
lowerback 11.726285066085037 -0.8850044446020879 -2.051126765165045
upperback -1.5481148506072189 -0.9798747372193217 1.8751176654186237
thorax -8.279127805060217 -0.6525916254355494 2.6110428106631347
lowerneck -19.594402873165595 -2.920895526205056 -2.1746323402043353
upperneck 12.191508288760568 -3.7957785566422952 3.068056161286472
head 7.1087617931247395 -1.7692339687398346 0.8655602074131346
lclavicle 4.28748940137487e-15 5.758947333402767e-17
lhumerus -34.765134945666894 -12.99151639234686 93.9466640291739
lradius 112.97655499381325
lwrist 29.012361017487205
lhand -29.568130407904327 3.2376498704589873
lfingers 7.125019999999998
lthumb -3.2063014606586906 33.19975985109328
rclavicle 4.28745605780197e-15 5.756553910638504e-17
rhumerus -54.99258391687528 12.944398081268885 -100.73893057838025
rradius 102.0168278008532
rwrist -10.197919034000245
rhand -20.53100387548436 36.726916915330314
rfingers 7.125019999999998
rthumb 5.869623613552176 7.168330529282636
31
root 0.20425788743757967 18.25432524015894 8.23547343364048 5.32447675087667 -4.806817953944077 0.32444663281238917
lfemur -0.2743259819046635 -0.03563893267578275 -26.044669630807263
ltibia 21.617097855019306
lfoot 12.539426195085955 -14.983181680318012
ltoes -13.238658326456637
rfemur -36.84967081536654 3.5379152556023796 23.84484249613743
rtibia 37.86038440097454
rfoot 1.3993202862593215 -2.1428620400702196
rtoes -6.758044924341564
lowerback 11.24869770416117 -1.0001651744680573 -1.9135716989509814
upperback -1.7925014344658834 -1.1455287734066935 2.0242718384287866
thorax -8.259545182206768 -0.6908357000551403 2.5740704696541576
lowerneck -19.600454403839137 -2.8512042576891097 -2.2696365984880535
upperneck 12.673740761674228 -3.6844892525489366 2.8950503911625267
head 7.128622027522524 -1.7562068030623519 0.8383559131218911
lclavicle 4.287489401371871e-15 5.758947333187521e-17
lhumerus -35.94327323659443 -13.50180299669477 94.45337618326147
lradius 113.59011535291413
lwrist 28.911796235616197
lhand -29.60341790175013 3.2086967599630474
lfingers 7.125019999999998
lthumb -3.231922111655356 33.16777446955769
rclavicle 4.287456057797348e-15 5.756553910306738e-17
rhumerus -55.51472508434745 12.656949854709012 -100.1977446076452
rradius 102.18410714517061
rwrist -10.26621138092761
rhand -20.28920438369758 36.65166423860707
rfingers 7.125019999999998
rthumb 5.959622111460005 6.8156483577907805
32
root 0.2850195213618754 18.42822128276741 10.282565691521414 5.651669576571037 -4.774725052118526 0.8664910566123156
lfemur 1.007846502092928 -0.04896022082793561 -25.83820880084773
ltibia 25.787136539006084
lfoot 14.229167181214258 -15.094499948883783
ltoes -11.134170263117479
rfemur -36.462341078606414 3.1750007513718366 23.551880802471857
rtibia 32.055655168257445
rfoot 1.3528014392634828 -1.7914903353204674
rtoes -6.206905341371007
lowerback 11.002943334505815 -1.1545147971668075 -2.0371107202327448
upperback -1.8680548693902752 -1.3518902855345614 2.075150961324045
thorax -8.263238254569004 -0.8019593341257624 2.60042380247505
lowerneck -19.617019110440328 -2.753759614353473 -2.189016168472794
upperneck 12.841849426227412 -3.627088799072401 2.8178758245469377
head 7.149567073565637 -1.7490156017788834 0.8364681093407225
lclavicle 4.287489401374282e-15 5.758947333360622e-17
lhumerus -37.16303285830614 -14.413861345107541 95.03265246194805
lradius 114.27290932216133
lwrist 28.609255939572538
lhand -29.524225007316975 3.240855405282084
lfingers 7.125019999999998
lthumb -3.2095786363202135 33.13681048364196
rclavicle 4.2874560577143224e-15 5.756553904347114e-17
rhumerus -56.11945097574392 12.334773384137382 -99.58849996114743
rradius 102.43069342607077
rwrist -10.080083045360515
rhand -19.96489402350708 36.80277638486493
rfingers 7.125019999999998
rthumb 6.324191237125957 7.06728900904865
